HIERARCHY
ROOT Hips
{
	OFFSET -0.001795 -0.223333 0.028219
	CHANNELS 6 Xposition Yposition Zposition Zrotation Yrotation Xrotation 
	JOINT LeftUpLeg
	{
		OFFSET 0.069520 -0.091406 -0.006815
		CHANNELS 3 Zrotation Yrotation Xrotation
		JOINT LeftLeg
		{
			OFFSET 0.034277 -0.375199 -0.004496
			CHANNELS 3 Zrotation Yrotation Xrotation
			JOINT LeftFoot
			{
				OFFSET -0.013596 -0.397961 -0.043693
				CHANNELS 3 Zrotation Yrotation Xrotation
				JOINT LeftToe
				{
					OFFSET 0.026358 -0.055791 0.119288
					CHANNELS 3 Zrotation Yrotation Xrotation
					End Site
					{
						OFFSET 0.000000 0.000000 0.000000
					}
				}
			}
		}
	}
	JOINT RightUpLeg
	{
		OFFSET -0.067670 -0.090522 -0.004320
		CHANNELS 3 Zrotation Yrotation Xrotation
		JOINT RightLeg
		{
			OFFSET -0.038290 -0.382569 -0.008850
			CHANNELS 3 Zrotation Yrotation Xrotation
			JOINT RightFoot
			{
				OFFSET 0.015774 -0.398415 -0.042312
				CHANNELS 3 Zrotation Yrotation Xrotation
				JOINT RightToe
				{
					OFFSET -0.025372 -0.048144 0.123348
					CHANNELS 3 Zrotation Yrotation Xrotation
					End Site
					{
						OFFSET 0.000000 0.000000 0.000000
					}
				}
			}
		}
	}
	JOINT Spine
	{
		OFFSET -0.002533 0.108963 -0.026696
		CHANNELS 3 Zrotation Yrotation Xrotation
		JOINT Spine1
		{
			OFFSET 0.005487 0.135180 0.001092
			CHANNELS 3 Zrotation Yrotation Xrotation
			JOINT Spine2
			{
				OFFSET 0.001457 0.052922 0.025425
				CHANNELS 3 Zrotation Yrotation Xrotation
				JOINT Neck
				{
					OFFSET -0.002778 0.213870 -0.042857
					CHANNELS 3 Zrotation Yrotation Xrotation
					JOINT Head
					{
						OFFSET 0.005152 0.064970 0.051349
						CHANNELS 3 Zrotation Yrotation Xrotation
						End Site
						{
							OFFSET 0.000000 0.000000 0.000000
						}
					}
				}
				JOINT LeftShoulder
				{
					OFFSET 0.078845 0.121749 -0.034090
					CHANNELS 3 Zrotation Yrotation Xrotation
					JOINT LeftArm
					{
						OFFSET 0.090977 0.030469 -0.008868
						CHANNELS 3 Zrotation Yrotation Xrotation
						JOINT LeftForeArm
						{
							OFFSET 0.259612 -0.012772 -0.027456
							CHANNELS 3 Zrotation Yrotation Xrotation
							JOINT LeftHand
							{
								OFFSET 0.249234 0.008986 -0.001171
								CHANNELS 3 Zrotation Yrotation Xrotation
								End Site
								{
									OFFSET 0.000000 0.000000 0.000000
								}
							}
						}
					}
				}
				JOINT RightShoulder
				{
					OFFSET -0.081759 0.118833 -0.038615
					CHANNELS 3 Zrotation Yrotation Xrotation
					JOINT RightArm
					{
						OFFSET -0.096012 0.032551 -0.009143
						CHANNELS 3 Zrotation Yrotation Xrotation
						JOINT RightForeArm
						{
							OFFSET -0.253742 -0.013329 -0.021401
							CHANNELS 3 Zrotation Yrotation Xrotation
							JOINT RightHand
							{
								OFFSET -0.255298 0.007772 -0.005559
								CHANNELS 3 Zrotation Yrotation Xrotation
								End Site
								{
									OFFSET 0.000000 0.000000 0.000000
								}
							}
						}
					}
				}
			}
		}
	}
}
MOTION
Frames: 6
Frame Time: 0.050000
-0.026338 0.955996 0.219727 2.695458 -16.931592 5.903686 7.755953 -0.006479 -7.842625 -4.237559 0.712945 3.961582 8.407751 16.056342 21.377729 0.000000 0.000000 0.000000 -9.508379 1.937414 -24.828862 2.142958 0.655669 15.686898 6.898702 1.323708 19.630021 0.000000 0.000000 0.000000 19.453314 -4.931238 30.161240 0.897986 -0.198739 -19.209886 5.113171 -2.489427 19.058480 19.723370 -15.476490 -7.417913 0.000000 0.000000 0.000000 6.193721 -20.842520 6.219865 -34.515588 -22.052916 1.350009 -43.965272 -66.285631 36.441384 0.000000 0.000000 0.000000 22.094271 19.816300 6.008210 40.262925 43.982381 9.736686 23.315945 36.061115 7.781075 0.000000 0.000000 0.000000 
-0.026891 0.955590 0.220276 2.647520 -16.869859 6.078692 7.792853 -0.008228 -8.170310 -4.134277 0.696825 4.126020 8.487295 16.160124 21.675764 0.000000 0.000000 0.000000 -9.375140 1.958618 -24.906580 2.191209 0.648462 15.755910 6.493266 0.919597 19.121361 0.000000 0.000000 0.000000 19.455054 -4.943062 30.080969 0.997304 -0.223920 -19.239652 5.080956 -2.634697 19.055027 19.377003 -15.248122 -7.294714 0.000000 0.000000 0.000000 5.867173 -20.772651 6.288971 -33.698052 -22.672499 1.437819 -40.828170 -66.946260 34.487845 0.000000 0.000000 0.000000 22.202319 19.753610 5.935210 40.315128 43.767039 9.687192 23.413086 36.060066 7.806094 0.000000 0.000000 0.000000 
-0.027213 0.955290 0.220774 2.613130 -16.900059 6.287715 7.772768 -0.014104 -8.381488 -4.148063 0.701483 4.192605 8.736041 16.501944 21.598900 0.000000 0.000000 0.000000 -9.381068 1.975507 -25.048545 2.235691 0.633720 15.683077 6.492995 0.972700 19.033052 0.000000 0.000000 0.000000 19.384839 -4.926157 29.989035 0.914776 -0.198815 -19.299163 5.154330 -2.810149 19.129012 19.013028 -15.041685 -7.046250 0.000000 0.000000 0.000000 5.146579 -20.999763 6.560558 -32.817417 -23.338319 1.493578 -38.334107 -67.890067 33.191968 0.000000 0.000000 0.000000 22.303990 19.742799 5.858279 40.120609 43.308252 9.473903 24.014520 36.327684 8.040012 0.000000 0.000000 0.000000 
-0.027277 0.954989 0.221273 2.645731 -17.143047 6.416383 7.568292 -0.031916 -8.664905 -3.827406 0.654013 4.551238 8.802203 16.547880 21.663333 0.000000 0.000000 0.000000 -9.380318 2.015404 -25.276185 2.361035 0.619596 15.739367 6.268521 0.560717 18.985995 0.000000 0.000000 0.000000 19.424346 -4.924570 30.111906 0.828003 -0.178048 -19.281261 5.078823 -3.060660 18.935740 18.658467 -14.798401 -6.805105 0.000000 0.000000 0.000000 4.610134 -21.122035 6.760796 -32.494464 -23.605199 1.539256 -36.765795 -68.767352 32.592223 0.000000 0.000000 0.000000 22.377644 19.899314 5.801492 39.906259 42.994489 9.351474 24.943379 36.374341 8.293154 0.000000 0.000000 0.000000 
-0.027181 0.954711 0.221735 2.624862 -17.334444 6.469305 7.522431 -0.032973 -8.596950 -3.725862 0.639030 4.612847 8.753492 16.469984 21.285776 0.000000 0.000000 0.000000 -9.361496 2.041302 -25.385517 2.294737 0.632255 15.653326 6.474864 0.707754 19.304825 0.000000 0.000000 0.000000 19.387204 -4.934859 30.460220 0.815372 -0.168730 -19.444128 5.022671 -3.227540 19.024166 18.262018 -14.534185 -6.657530 0.000000 0.000000 0.000000 4.289437 -21.121067 6.855396 -32.845143 -24.162397 1.726968 -36.104208 -69.600521 32.680686 0.000000 0.000000 0.000000 22.174986 19.994129 5.771155 39.894888 42.689590 9.242134 25.954842 36.699136 8.660740 0.000000 0.000000 0.000000 
-0.027053 0.954497 0.222164 2.689670 -17.795492 6.337870 7.319978 -0.041249 -8.418973 -3.564256 0.621529 4.854267 8.852011 16.558570 21.031422 0.000000 0.000000 0.000000 -9.339457 2.059263 -25.253567 2.187691 0.671677 15.690679 6.610576 1.163214 18.789906 0.000000 0.000000 0.000000 19.380233 -4.926757 30.999395 0.648864 -0.133283 -19.402881 4.753634 -3.321876 18.865978 17.573231 -14.173289 -5.890927 0.000000 0.000000 0.000000 3.939806 -21.133725 6.962135 -32.948416 -24.273836 1.773447 -35.690398 -69.976944 32.647537 0.000000 0.000000 0.000000 22.243131 20.074655 5.708387 39.840159 42.370646 9.167613 26.982964 37.450352 9.145553 0.000000 0.000000 0.000000 
